<?xml version='1.0' encoding='UTF-8'?>
<svg viewBox="-2 -4 32 32" xmlns="http://www.w3.org/2000/svg">
  <g id="Layer_1" transform="translate(-2, -4)">
    <g id="Suitcase">
      <path d="M2, 9L2, 27C2, 27.5 2.4, 28 3, 28L6, 28L6, 8L3, 8C2.4, 8 2, 8.5 2, 9z" fill="#1177D7" class="Blue" />
    </g>
  </g>
  <g id="Layer_1" transform="translate(-2, -4)">
    <g id="Suitcase">
      <path d="M29, 8L26, 8L26, 28L29, 28C29.6, 28 30, 27.5 30, 27L30, 9C30, 8.5 29.6, 8 29, 8z" fill="#1177D7" class="Blue" />
    </g>
  </g>
  <g id="Layer_1" transform="translate(-2, -4)">
    <g id="Suitcase">
      <path d="M22, 5C22, 4.5 21.6, 4 21, 4L11, 4C10.4, 4 10, 4.5 10, 5L10, 8L8, 8L8, 28L24, 28L24, 8L22, 8L22, 5zM20, 8L12, 8L12, 6L20, 6L20, 8z" fill="#1177D7" class="Blue" />
    </g>
  </g>
  <g id="Layer_1" transform="translate(8, 12)">
    <g id="User">
      <path d="M4, 4.9C3.9, 5.3 4.1, 5.5 4.3, 5.8C4.5, 6.1 4.2, 6.8 4.9, 6.8C4.9, 6.8 4.9, 6.9 4.9, 6.9C5.3, 8.4 6.2, 10 8, 10C9.8, 10 10.8, 8.4 11.2, 6.9C11.2, 6.9 11.2, 6.8 11.2, 6.8C11.9, 6.8 11.6, 6.1 11.8, 5.8C12, 5.5 12.1, 5.3 12, 4.9C11.9, 4.6 11.7, 4.7 11.6, 4.7C12.8, 1.6 10.9, 1.8 10.9, 1.8C10.9, 1.8 10.7, 0 7.2, 0C4, 0 3.6, 2.5 4.3, 4.7C4.3, 4.8 4.1, 4.8 4, 4.9z" fill="#FFB115" class="Yellow" />
    </g>
  </g>
  <g id="Layer_1" transform="translate(8, 12)">
    <g id="User">
      <path d="M10.7, 10C10.2, 10.9 9.3, 12 8, 12C6.7, 12 5.9, 10.9 5.3, 10C3.8, 12.1 0, 10.6 0, 15.1L0, 16L16, 16L16, 15.1C16, 10.6 12.2, 12.1 10.7, 10z" fill="#FFB115" class="Yellow" />
    </g>
  </g>
</svg>